<svg width="512" height="512" viewBox="0 0 512 512" fill="none" xmlns="http://www.w3.org/2000/svg">
<g clip-path="url(#clip0_120_315)">
<path d="M6.2741 314.997C5.1349 310.14 10.9204 307.082 14.4476 310.609L201.391 497.552C204.918 501.079 201.86 506.865 197.003 505.726C102.664 483.595 28.4047 409.336 6.2741 314.997ZM0.0096837 240.072C-0.0806523 241.523 0.464709 242.939 1.49229 243.966L268.034 510.507C269.061 511.535 270.477 512.082 271.928 511.99C284.058 511.234 295.96 509.635 307.575 507.249C311.49 506.446 312.849 501.636 310.024 498.811L13.1889 201.976C10.3633 199.151 5.55407 200.51 4.75021 204.425C2.36473 216.04 0.765215 227.942 0.0096837 240.072ZM21.56 152.092C20.7075 154.005 21.1417 156.242 22.6231 157.724L354.276 489.377C355.758 490.858 357.994 491.292 359.908 490.44C369.053 486.367 377.916 481.773 386.458 476.698C389.285 475.019 389.721 471.134 387.396 468.81L43.1906 124.604C40.8656 122.279 36.9815 122.715 35.302 125.542C30.2264 134.084 25.6332 142.947 21.56 152.092ZM64.8125 92.5388C62.9176 90.6439 62.8004 87.6047 64.5857 85.6059C111.511 33.0717 179.77 0 255.754 0C397.275 0 512 114.725 512 256.246C512 332.229 478.928 400.489 426.394 447.414C424.396 449.199 421.356 449.082 419.461 447.187L64.8125 92.5388Z" fill="white"/>
</g>
<defs>
<clipPath id="clip0_120_315">
<rect width="512" height="512" fill="white"/>
</clipPath>
</defs>
</svg>
